<?xml version="1.0" encoding="iso-8859-1"?>
<!-- Generator: Adobe Illustrator 17.1.0, SVG Export Plug-In . SVG Version: 6.00 Build 0)  -->
<!DOCTYPE svg PUBLIC "-//W3C//DTD SVG 1.1//EN" "http://www.w3.org/Graphics/SVG/1.1/DTD/svg11.dtd">
<svg xmlns="http://www.w3.org/2000/svg" xmlns:xlink="http://www.w3.org/1999/xlink" version="1.1" id="Capa_1" x="0px" y="0px" viewBox="0 0 254.533 254.533" style="enable-background:new 0 0 254.533 254.533;" xml:space="preserve" width="512px" height="512px">
<path d="M127.267,0C57.092,0,0,57.092,0,127.267s57.092,127.267,127.267,127.267s127.267-57.092,127.267-127.267  S197.441,0,127.267,0z M127.269,226.336c-22.687,0-43.612-7.671-60.332-20.547l38.889-38.889h66.477v9.563  c0,4.426,3.601,8.026,8.026,8.026h10.48c4.426,0,8.026-3.601,8.026-8.026v-38.297c0-5.485-1.695-14.076-3.778-19.149l-1.276-3.109  h0.968c4.426,0,8.026-3.601,8.026-8.026v-4.494c0-3.791-2.614-6.542-6.216-6.542c-0.658,0-1.333,0.094-2.006,0.279l-7.622,2.1  l-3.909-9.521l22.771-22.771c12.877,16.72,20.548,37.646,20.548,60.333C226.34,181.893,181.896,226.336,127.269,226.336z   M154.228,137.516c0-1.766,1.444-3.21,3.21-3.21h22.742c1.766,0,3.21,1.444,3.21,3.21v10.915c0,1.766-1.444,3.21-3.21,3.21h-22.742  c-1.766,0-3.21-1.444-3.21-3.21V137.516z M181.166,111.548c1.342,3.267-0.451,5.939-3.982,5.939h-21.945l20.11-20.11  L181.166,111.548z M85.729,151.641H74.035c-1.766,0-3.21-1.444-3.21-3.21v-10.915c0-1.766,1.444-3.21,3.21-3.21h22.74  c1.725,0,3.134,1.381,3.197,3.091L85.729,151.641z M77.246,117.487c-3.531,0-5.324-2.673-3.982-5.939l11.969-29.16  c1.342-3.267,5.328-5.94,8.859-5.94h66.244c0.186,0,0.373,0.012,0.561,0.025l-41.014,41.014H77.246z M167.012,70.358  c-0.928-0.2-1.856-0.317-2.769-0.317H90.183c-5.903,0-12.531,4.443-14.772,9.905l-7.902,19.252l-7.527-2.073  c-0.673-0.186-1.348-0.279-2.006-0.279c-3.602,0-6.216,2.751-6.216,6.542v4.494c0,4.426,3.601,8.026,8.026,8.026h0.862l-1.276,3.109  c-2.083,5.073-3.778,13.664-3.778,19.149v38.297c0,1.519,0.019,5.295,0.019,5.295l-6.42,6.42  c-13.146-16.814-20.992-37.964-20.992-60.912c0-54.628,44.442-99.071,99.069-99.071c22.949,0,44.099,7.846,60.913,20.993  L167.012,70.358z" fill="#D80027"/>
<g>
</g>
<g>
</g>
<g>
</g>
<g>
</g>
<g>
</g>
<g>
</g>
<g>
</g>
<g>
</g>
<g>
</g>
<g>
</g>
<g>
</g>
<g>
</g>
<g>
</g>
<g>
</g>
<g>
</g>
</svg>
