<?xml version="1.0" encoding="iso-8859-1"?>
<!-- Generator: Adobe Illustrator 19.0.0, SVG Export Plug-In . SVG Version: 6.00 Build 0)  -->
<svg xmlns="http://www.w3.org/2000/svg" xmlns:xlink="http://www.w3.org/1999/xlink" version="1.1" id="Layer_1" x="0px" y="0px" viewBox="0 0 511.998 511.998" style="enable-background:new 0 0 511.998 511.998;" xml:space="preserve" width="512px" height="512px">
<g>
	<g>
		<path d="M327.015,399.306h-24.227v-21.187c0-9.068-7.377-16.445-16.445-16.445h-38.787c-9.068,0-16.445,7.377-16.445,16.445    v21.187h-24.227c-6.112,0-11.068,4.956-11.068,11.068v83.517c0,6.112,4.956,11.068,11.068,11.068h120.131    c6.112,0,11.068-4.956,11.068-11.068v-83.517C338.083,404.261,333.129,399.306,327.015,399.306z M249.573,399.306v-19.17h34.753    v19.17H249.573z" fill="#16a085"/>
	</g>
</g>
<g>
	<g>
		<path d="M490.581,159.983L468.54,43.831c-1.066-5.623-5.982-9.693-11.704-9.693h-71.172l-3.017-21.671    c-0.433-3.112-3.095-5.429-6.237-5.429h-55.215c-3.143,0-5.804,2.317-6.237,5.429l-3.017,21.671h-73.879    c-5.722,0-10.638,4.07-11.704,9.693l-4.693,24.73l25.483-6.489l0.779-4.106h15.348l27.284-6.948    c11.082-2.825,23.054-0.451,32.326,6.948h46.433c-1.372,3.024-2.142,6.38-2.142,9.917c0,13.278,10.764,24.04,24.04,24.04    s24.04-10.764,24.04-24.04c0-3.537-0.77-6.892-2.142-9.917h33.854l17.17,90.484c-2.787-0.423-5.64-0.644-8.545-0.644H449.8    l-0.096-20.907c-0.075-15.061-12.39-27.313-27.45-27.313h-31.086h-0.099h-31.087c-15.061,0-27.374,12.252-27.449,27.313    l-0.096,20.908h-93.135c-2.905,0-5.758,0.221-8.545,0.644l1.11-5.85l-25.482,6.489l-2.067,10.894    c-13.043,10.331-21.419,26.296-21.419,44.226v51.227c0,11.658,9.451,21.109,21.109,21.109h7.85v25.062    c0,15.885,12.878,28.762,28.762,28.762s28.762-12.878,28.762-28.762v-25.062h156.135v25.062c0,15.885,12.878,28.762,28.762,28.762    c15.885,0,28.762-12.878,28.762-28.762v-25.062h7.85c11.659,0,21.109-9.451,21.109-21.109V204.21    C512,186.279,503.623,170.314,490.581,159.983z M239.797,243.266c-15.078,0-27.153-12.257-27.153-27.153    c0-14.996,12.157-27.153,27.153-27.153c14.929,0,27.04,12.05,27.148,26.953c0,0.067,0.006,0.133,0.006,0.2    C266.951,231.11,254.793,243.266,239.797,243.266z M455.1,243.266c-14.996,0-27.153-12.157-27.153-27.153    c0-0.067,0.004-0.133,0.006-0.2c0.108-14.904,12.219-26.953,27.148-26.953c14.996,0,27.153,12.157,27.153,27.153    C482.253,231.011,470.176,243.266,455.1,243.266z" fill="#16a085"/>
	</g>
</g>
<g>
	<g>
		<path d="M318.874,82.125c-2.692-10.573-13.445-16.967-24.021-14.271l-135.667,34.548c-10.184,0-91.978-0.001-102.716-0.001    c-25.653,0-46.627,20.87-46.754,46.521l-0.73,145.15c-0.041,8.205,4.927,15.265,12.033,18.287l-0.053,23.794h-5.844    C6.77,336.153,0,342.923,0,351.274v73.919c0,8.351,6.77,15.121,15.121,15.121h27.243c7.166,0,13.155-4.991,14.713-11.684v52.62    c0,13.094,10.615,23.709,23.709,23.709c13.094,0,23.709-10.615,23.709-23.709V291.742h10.235V481.25    c0,13.094,10.615,23.709,23.709,23.709s23.709-10.615,23.709-23.709c0-319.084-0.43-123.824-0.43-339.336    c0,0,26.603-6.118,142.884-35.768C315.177,103.454,321.567,92.698,318.874,82.125z M42.364,336.153h-5.108l0.055-24.2    c6.583-3.178,11.15-9.881,11.189-17.683l0.729-145.151c0.011-2.163,1.77-3.907,3.93-3.9c2.161,0.006,3.909,1.76,3.909,3.92    l0.009,198.697C55.519,341.144,49.53,336.153,42.364,336.153z" fill="#16a085"/>
	</g>
</g>
<g>
	<g>
		<path d="M109.609,7.455c-22.615,0-40.947,18.332-40.947,40.947C68.661,71.199,87.213,89.35,109.609,89.35    c22.509,0,40.947-18.261,40.947-40.947C150.556,25.787,132.224,7.455,109.609,7.455z" fill="#16a085"/>
	</g>
</g>
<g>
</g>
<g>
</g>
<g>
</g>
<g>
</g>
<g>
</g>
<g>
</g>
<g>
</g>
<g>
</g>
<g>
</g>
<g>
</g>
<g>
</g>
<g>
</g>
<g>
</g>
<g>
</g>
<g>
</g>
</svg>
